# xmcd
#
# Track frame offsets:
#	150
#	4407
#	19912
#	35940
#	52110
#	66770
#	84205
#	102007
#	122280
#	138735
#	152272
#	170705
#	188062
#	199867
#
# Disc length: 2868 seconds
#
# Revision: 0
# Processed by: cddbd v1.5.2PL0 Copyright (c) Steve Scherf et al.
# Submitted via: audiograbber 1.83.01
#
DISCID=ba0b320e
DTITLE=Martina McBride - Evolution [HDCD]
DYEAR=1997
DGENRE=Country
TTITLE0=I'm Little But I'm Loud
TTITLE1=Happy Girl
TTITLE2=Be That Way
TTITLE3=A Broken Wing
TTITLE4=Wrong Again
TTITLE5=Keeping My Distance
TTITLE6=Still Holding On [Duet with Clint Black]
TTITLE7=Whatever You Say
TTITLE8=I Won't Close My Eyes
TTITLE9=I Don't Want To See You Again
TTITLE10=Some Say I'm Running
TTITLE11=Here In My Heart
TTITLE12=One Day You Will
TTITLE13=Valentine [with special guest artist Jim Brickman]
EXTD=
EXTT0=
EXTT1=
EXTT2=
EXTT3=
EXTT4=
EXTT5=
EXTT6=
EXTT7=
EXTT8=
EXTT9=
EXTT10=
EXTT11=
EXTT12=
EXTT13=
PLAYORDER=
